<svg xmlns="http://www.w3.org/2000/svg" viewBox="0 0 512 512" role="img" aria-label="Barya Business AI icon">
  <defs>
    <linearGradient id="g" x1="0" x2="1" y1="0" y2="1">
      <stop offset="0%" stop-color="#111827"/>
      <stop offset="100%" stop-color="#1f2937"/>
    </linearGradient>
  </defs>
  <rect width="512" height="512" rx="96" fill="url(#g)"/>
  <path d="M140 120h140c64 0 108 36 108 94 0 42-25 70-60 82 42 12 72 43 72 92 0 67-53 104-126 104H140V120zm64 58v89h65c33 0 55-16 55-45s-22-44-55-44h-65zm0 142v114h75c38 0 61-20 61-57 0-38-23-57-61-57h-75z" fill="#fff"/>
</svg>
